<svg width="1920" height="3153" viewBox="0 0 1920 3153" fill="none" xmlns="http://www.w3.org/2000/svg">
<g clip-path="url(#clip0_25_189)">
<rect width="1920" height="3240" transform="translate(0 -87)" fill="white" fill-opacity="0.1"/>
<rect x="-110" y="-178" width="2166" height="3387" fill="white"/>
<path d="M2207.29 1763.92C2207.29 1974.85 2020.42 2145.92 1789.79 2145.92C1559.17 2145.92 1372.29 1974.85 1372.29 1763.92C1372.29 1552.98 1559.17 1381.92 1789.79 1381.92C2020.42 1381.92 2207.29 1552.98 2207.29 1763.92Z" fill="white" stroke="#131214"/>
<path d="M1361.02 2344.02C1353.33 2339.29 1348.72 2330.65 1347.05 2318.42C1345.38 2306.18 1346.68 2290.42 1350.75 2271.54C1358.89 2233.78 1378.1 2183.68 1406.71 2124.73C1463.92 2006.83 1558.66 1853.59 1677.38 1692.97C1796.09 1532.35 1916.29 1394.79 2014.65 1302.21C2063.83 1255.92 2107.53 1220.9 2142.84 1199.87C2160.5 1189.35 2176.03 1182.35 2189.09 1179.17C2202.14 1176 2212.64 1176.67 2220.32 1181.4C2228.01 1186.13 2232.62 1194.76 2234.29 1207C2235.96 1219.23 2234.66 1235 2230.59 1253.88C2222.45 1291.64 2203.24 1341.73 2174.63 1400.69C2117.42 1518.59 2022.68 1671.83 1903.96 1832.44C1785.25 1993.06 1665.05 2130.63 1566.69 2223.2C1517.51 2269.49 1473.81 2304.52 1438.5 2325.55C1420.84 2336.07 1405.31 2343.07 1392.25 2346.24C1379.2 2349.42 1368.7 2348.74 1361.02 2344.02Z" stroke="#131214"/>
<path d="M813.47 356.824C956.136 539.428 1034.87 744.11 1046.87 927.404C1058.86 1110.7 1004.11 1272.55 879.873 1369.62C755.636 1466.68 585.345 1480.65 410.394 1424.67C235.446 1368.69 55.8926 1242.77 -86.7732 1060.17C-229.439 877.567 -308.178 672.885 -320.171 489.591C-332.165 306.293 -277.414 144.441 -153.177 47.3755C-28.9389 -49.6896 141.352 -63.6585 316.303 -7.6772C491.251 48.3031 670.804 174.22 813.47 356.824Z" stroke="#131214"/>
<path d="M634.726 493.714C739.302 627.565 803.275 772.701 822.185 899.132C841.098 1025.58 814.929 1133.2 739.394 1192.22C663.858 1251.23 553.101 1250.59 434.984 1201.65C316.883 1152.71 191.535 1055.53 86.9587 921.677C-17.6172 787.826 -81.5901 642.69 -100.501 516.258C-119.414 389.809 -93.2442 282.186 -17.709 223.172C57.8262 164.157 168.583 164.801 286.701 213.743C404.802 262.679 530.15 359.863 634.726 493.714Z" stroke="#131214"/>
<circle cx="1027" cy="1082" r="66.5" fill="white" stroke="#131214"/>
<circle cx="825" cy="971" r="21.5" fill="white" stroke="#131214"/>
<path d="M128.128 2389.82L278.57 2616.95C282.51 2622.9 288.523 2627.17 295.439 2628.93L563.349 2697.14C583.191 2702.2 590.91 2726.27 577.706 2741.92L403.143 2948.82C398.391 2954.46 395.984 2961.7 396.419 2969.05L412.276 3236.76C413.464 3256.83 393.583 3271.46 374.779 3264.35L115.158 3166.26C108.612 3163.79 101.388 3163.79 94.8419 3166.26L-164.779 3264.35C-183.583 3271.46 -203.464 3256.83 -202.276 3236.76L-186.419 2969.05C-185.984 2961.7 -188.391 2954.46 -193.143 2948.82L-367.706 2741.92C-380.91 2726.27 -373.191 2702.2 -353.349 2697.14L-85.439 2628.93C-78.5234 2627.17 -72.5103 2622.9 -68.5696 2616.95L81.8724 2389.82C92.843 2373.26 117.157 2373.26 128.128 2389.82Z" stroke="#131214"/>
<rect x="1660.4" y="2125" width="4.45908" height="1.64392" transform="rotate(16 1660.4 2125)" fill="white"/>
<circle cx="1554.5" cy="1853.5" r="89" fill="white" stroke="#131214"/>
<rect x="1660.4" y="2125" width="4.45908" height="1.64392" transform="rotate(16 1660.4 2125)" fill="white"/>
<mask id="path-12-inside-1_25_189" fill="white">
<path d="M2037.72 1455.96C2126.11 1515.55 2185.34 1604.57 2202.6 1703.79C2219.86 1803.01 2193.76 1904.46 2129.95 1986.22C2066.14 2067.98 1969.74 2123.48 1861.58 2140.73C1753.41 2157.99 1642.18 2135.61 1551.9 2078.43L1789.79 1763.92L2037.72 1455.96Z"/>
</mask>
<path d="M2037.72 1455.96C2126.11 1515.55 2185.34 1604.57 2202.6 1703.79C2219.86 1803.01 2193.76 1904.46 2129.95 1986.22C2066.14 2067.98 1969.74 2123.48 1861.58 2140.73C1753.41 2157.99 1642.18 2135.61 1551.9 2078.43L1789.79 1763.92L2037.72 1455.96Z" fill="white" stroke="black" stroke-width="2" mask="url(#path-12-inside-1_25_189)"/>
<path d="M1555 2077L1661.85 1937.51L1765.73 1805.72L1802.16 1759.06M1820.94 1735.01L1802.16 1759.06M1802.16 1759.06L1842.31 1719.62L1923.04 1638.33L1964 1596" stroke="white" stroke-width="9"/>
<path d="M1665.93 1914C1726.25 1843.78 1816.09 1735.12 1853.47 1689.56L1960.77 1545.92L1983 1516L1660 1912" stroke="white" stroke-width="7"/>
</g>
<defs>
<clipPath id="clip0_25_189">
<rect width="1920" height="3240" fill="white" transform="translate(0 -87)"/>
</clipPath>
</defs>
</svg>
